<svg width="600" height="790" viewBox="0 0 600 790" fill="none" xmlns="http://www.w3.org/2000/svg">
<g filter="url(#filter0_i_1_144)">
<path d="M346.252 204.665H468.097C473.686 204.665 478.344 202.754 482.07 198.932C485.798 195.11 487.662 190.333 487.662 184.6C487.662 179.058 485.798 174.424 482.07 170.697C478.344 166.971 473.686 165.108 468.097 165.108H346.252C340.476 165.108 335.726 166.971 332 170.697C328.273 174.424 326.41 179.058 326.41 184.6C326.41 190.333 328.273 195.11 332 198.932C335.726 202.754 340.476 204.665 346.252 204.665ZM346.252 334.23H468.097C473.686 334.23 478.344 332.271 482.07 328.354C485.798 324.436 487.662 319.706 487.662 314.165C487.662 308.623 485.798 303.989 482.07 300.262C478.344 296.536 473.686 294.673 468.097 294.673H346.252C340.476 294.673 335.726 296.536 332 300.262C328.273 303.989 326.41 308.623 326.41 314.165C326.41 319.706 328.273 324.436 332 328.354C335.726 332.271 340.476 334.23 346.252 334.23ZM110.666 648.682H132.744L184.165 597.086C191.058 590.398 198.417 587.053 206.242 587.053C214.626 587.053 222.358 590.398 229.437 597.086L259.898 625.464L337.03 555.809C345.786 548.165 354.729 544.343 363.858 544.343C368.516 544.343 373.173 545.25 377.831 547.066C382.489 548.881 386.587 551.891 390.127 556.095L467.259 645.816H489.333V460.068C489.333 427.39 473.312 411.052 441.269 411.052H159.013C143.55 411.052 131.626 415.16 123.242 423.377C114.858 431.595 110.666 443.825 110.666 460.068V648.682ZM232.232 555.522C221.053 555.522 211.505 551.413 203.587 543.196C195.669 534.979 191.71 525.233 191.71 513.958C191.71 502.492 195.669 492.555 203.587 484.147C211.505 475.738 221.053 471.725 232.232 472.108C243.41 472.299 253.005 476.455 261.016 484.577C269.027 492.698 273.033 502.492 273.033 513.958C273.033 525.233 269.027 534.979 261.016 543.196C253.005 551.413 243.41 555.522 232.232 555.522ZM0 678.494C0 715.567 8.98929 743.42 26.9679 762.052C44.9465 780.684 71.8213 790 107.592 790H492.412C528.183 790 555.058 780.684 573.037 762.052C591.012 743.42 600 715.567 600 678.494V111.505C600 74.6227 591.012 46.8178 573.037 28.09C555.058 9.36331 528.183 0 492.412 0H107.592C71.8213 0 44.9465 9.36331 26.9679 28.09C8.98929 46.8178 0 74.6227 0 111.505V678.494ZM49.4641 677.347V112.651C49.4641 92.586 54.5877 77.2503 64.8348 66.6442C75.0815 56.0381 90.2656 50.735 110.387 50.735H489.613C509.737 50.735 524.921 56.0381 535.166 66.6442C545.414 77.2503 550.539 92.586 550.539 112.651V677.347C550.539 697.413 545.414 712.748 535.166 723.354C524.921 733.96 509.737 739.263 489.613 739.263H110.387C90.2656 739.263 75.0815 733.96 64.8348 723.354C54.5877 712.748 49.4641 697.413 49.4641 677.347Z" fill="white" fill-opacity="0.9" style="fill:white;fill-opacity:0.9;"/>
<path d="M149.414 240.617C154.384 258.626 147.737 276.277 134.52 280.085C121.303 283.894 106.594 272.366 101.641 254.348C96.688 236.33 103.317 218.671 116.534 214.88C129.751 211.089 144.452 222.591 149.414 240.617Z" fill="white" fill-opacity="0.9" style="fill:white;fill-opacity:0.9;"/>
<path d="M182.703 182.217C187.59 199.859 181.245 217.092 168.539 220.772C155.833 224.452 141.56 213.087 136.691 195.453C131.822 177.82 138.174 160.588 150.88 156.916C163.586 153.244 177.817 164.644 182.703 182.217Z" fill="white" fill-opacity="0.9" style="fill:white;fill-opacity:0.9;"/>
<path d="M241.48 172.73C246.45 190.74 240.332 208.271 227.777 211.874C215.222 215.478 201.041 203.787 196.021 185.804C191.001 167.82 197.186 150.289 209.758 146.66C222.329 143.031 236.485 154.73 241.48 172.73Z" fill="white" fill-opacity="0.9" style="fill:white;fill-opacity:0.9;"/>
<path d="M298.514 211.618C303.224 228.696 296.368 245.57 283.201 249.353C270.035 253.135 255.544 242.385 250.783 225.349C246.023 208.313 252.904 191.397 266.096 187.606C279.287 183.814 293.787 194.565 298.514 211.618Z" fill="white" fill-opacity="0.9" style="fill:white;fill-opacity:0.9;"/>
<path d="M181.748 344.667C181.748 344.667 140.68 357.476 142.918 303.679C148.411 290.957 155.572 279.053 164.206 268.293C164.206 268.293 175.588 249.72 177.616 243.034C177.616 243.034 191.185 207.596 222.698 233.154C222.698 233.154 249.149 259.104 259.29 261.88C259.29 261.88 293.694 283.228 276.614 315.045C276.614 315.045 259.852 334.395 244.766 326.146C244.774 326.137 207.52 308.905 181.748 344.667Z" fill="white" fill-opacity="0.9" style="fill:white;fill-opacity:0.9;"/>
</g>
<defs>
<filter id="filter0_i_1_144" x="0" y="0" width="600" height="794" filterUnits="userSpaceOnUse" color-interpolation-filters="sRGB">
<feFlood flood-opacity="0" result="BackgroundImageFix"/>
<feBlend mode="normal" in="SourceGraphic" in2="BackgroundImageFix" result="shape"/>
<feColorMatrix in="SourceAlpha" type="matrix" values="0 0 0 0 0 0 0 0 0 0 0 0 0 0 0 0 0 0 127 0" result="hardAlpha"/>
<feOffset dy="4"/>
<feGaussianBlur stdDeviation="2"/>
<feComposite in2="hardAlpha" operator="arithmetic" k2="-1" k3="1"/>
<feColorMatrix type="matrix" values="0 0 0 0 0.898039 0 0 0 0 0.776471 0 0 0 0 0.607843 0 0 0 0.4 0"/>
<feBlend mode="normal" in2="shape" result="effect1_innerShadow_1_144"/>
</filter>
</defs>
</svg>
